# xmcd CD database file
#
# Track frame offsets:
#	182
#	11465
#	29797
#	41267
#	52235
#	64670
#	77050
#	90425
#	103277
#	121182
#
# Disc length: 1965 seconds
#
# Revision: 5
# Processed by: cddbd v1.4PL0 Copyright (c) Steve Scherf et al.
# Submitted via: CDex 1.40Release
#
DISCID=7d07ab0a
DTITLE=The Big Payback - CD 2
DYEAR=1900
DGENRE=Funk
TTITLE0=Can I Be Your Squeeze - Chuck Carbo
TTITLE1=Spread The News - Perfect Circle
TTITLE2=Kiss By Kiss - Syl Johnson
TTITLE3=Reborn - Marilyn Barbarin and The Soul Finders
TTITLE4=Cookies - Brother Soul
TTITLE5=Sorry 'Bout That - Benny Poole
TTITLE6=Live It Up - James K. Nine
TTITLE7=Honey Trippin' - Mystic Moods - Mystic Moods
TTITLE8=Did You Mean It? - Arlene Bell
TTITLE9=Skin It Back (Parts 1 and 2) - Tommy Bush
EXTD=ID3G: 5
EXTT0=
EXTT1=
EXTT2=
EXTT3=
EXTT4=
EXTT5=
EXTT6=
EXTT7=
EXTT8=
EXTT9=
PLAYORDER=
